<svg width="16" height="16" viewBox="0 0 16 16" fill="none" xmlns="http://www.w3.org/2000/svg">
<path d="M2.88885 10.4467C2.95967 10.5164 3.04393 10.5717 3.13676 10.6094C3.2296 10.6472 3.32917 10.6666 3.42974 10.6666C3.53031 10.6666 3.62988 10.6472 3.72272 10.6094C3.81555 10.5717 3.89981 10.5164 3.97063 10.4467L7.45976 7.04141C7.53058 6.97172 7.61484 6.91641 7.70767 6.87866C7.80051 6.84091 7.90008 6.82148 8.00065 6.82148C8.10122 6.82148 8.20079 6.84091 8.29363 6.87866C8.38646 6.91641 8.47072 6.97172 8.54154 7.04141L12.0307 10.4467C12.1015 10.5164 12.1857 10.5717 12.2786 10.6094C12.3714 10.6472 12.471 10.6666 12.5716 10.6666C12.6721 10.6666 12.7717 10.6472 12.8645 10.6094C12.9574 10.5717 13.0416 10.5164 13.1125 10.4467C13.2543 10.3074 13.334 10.1189 13.334 9.92252C13.334 9.72609 13.2543 9.53765 13.1125 9.39834L9.61571 5.98562C9.18718 5.56791 8.6063 5.33329 8.00065 5.33329C7.395 5.33329 6.81412 5.56791 6.3856 5.98562L2.88885 9.39834C2.74696 9.53765 2.66732 9.72609 2.66732 9.92252C2.66732 10.1189 2.74696 10.3074 2.88885 10.4467Z" fill="black"/>
</svg> 