<svg width="56" height="24" viewBox="0 0 56 24" fill="none" xmlns="http://www.w3.org/2000/svg">
<path d="M45.3999 12.7098C45.4936 12.6169 45.568 12.5063 45.6188 12.3844C45.6696 12.2625 45.6957 12.1318 45.6957 11.9998C45.6957 11.8678 45.6696 11.7371 45.6188 11.6152C45.568 11.4934 45.4936 11.3828 45.3999 11.2898L40.8099 6.70982C40.7162 6.61685 40.6418 6.50625 40.591 6.38439C40.5402 6.26253 40.5141 6.13183 40.5141 5.99982C40.5141 5.8678 40.5402 5.7371 40.591 5.61524C40.6418 5.49338 40.7162 5.38278 40.8099 5.28982C40.9973 5.10356 41.2507 4.99902 41.5149 4.99902C41.7791 4.99902 42.0325 5.10356 42.2199 5.28982L46.8099 9.87982C47.3717 10.4423 47.6873 11.2048 47.6873 11.9998C47.6873 12.7948 47.3717 13.5573 46.8099 14.1198L42.2199 18.7098C42.0336 18.8946 41.7822 18.9987 41.5199 18.9998C41.3883 19.0006 41.2578 18.9754 41.136 18.9256C41.0142 18.8758 40.9033 18.8025 40.8099 18.7098C40.7162 18.6169 40.6418 18.5063 40.591 18.3844C40.5402 18.2625 40.5141 18.1318 40.5141 17.9998C40.5141 17.8678 40.5402 17.7371 40.591 17.6152C40.6418 17.4934 40.7162 17.3828 40.8099 17.2898L45.3999 12.7098Z" fill="white"/>
<path d="M29.3999 12.7098C29.4936 12.6169 29.568 12.5063 29.6188 12.3844C29.6696 12.2625 29.6957 12.1318 29.6957 11.9998C29.6957 11.8678 29.6696 11.7371 29.6188 11.6152C29.568 11.4934 29.4936 11.3828 29.3999 11.2898L24.8099 6.70982C24.7162 6.61685 24.6418 6.50625 24.591 6.38439C24.5402 6.26253 24.5141 6.13183 24.5141 5.99982C24.5141 5.8678 24.5402 5.7371 24.591 5.61524C24.6418 5.49338 24.7162 5.38278 24.8099 5.28982C24.9973 5.10356 25.2507 4.99902 25.5149 4.99902C25.7791 4.99902 26.0325 5.10356 26.2199 5.28982L30.8099 9.87982C31.3717 10.4423 31.6873 11.2048 31.6873 11.9998C31.6873 12.7948 31.3717 13.5573 30.8099 14.1198L26.2199 18.7098C26.0336 18.8946 25.7822 18.9987 25.5199 18.9998C25.3883 19.0006 25.2578 18.9754 25.136 18.9256C25.0142 18.8758 24.9033 18.8025 24.8099 18.7098C24.7162 18.6169 24.6418 18.5063 24.591 18.3844C24.5402 18.2625 24.5141 18.1318 24.5141 17.9998C24.5141 17.8678 24.5402 17.7371 24.591 17.6152C24.6418 17.4934 24.7162 17.3828 24.8099 17.2898L29.3999 12.7098Z" fill="white" fill-opacity="0.6"/>
<path d="M13.3999 12.7098C13.4936 12.6169 13.568 12.5063 13.6188 12.3844C13.6696 12.2625 13.6957 12.1318 13.6957 11.9998C13.6957 11.8678 13.6696 11.7371 13.6188 11.6152C13.568 11.4934 13.4936 11.3828 13.3999 11.2898L8.8099 6.70982C8.71617 6.61685 8.64177 6.50625 8.591 6.38439C8.54024 6.26253 8.5141 6.13183 8.5141 5.99982C8.5141 5.8678 8.54024 5.7371 8.591 5.61524C8.64177 5.49338 8.71617 5.38278 8.8099 5.28982C8.99726 5.10356 9.25071 4.99902 9.5149 4.99902C9.77908 4.99902 10.0325 5.10356 10.2199 5.28982L14.8099 9.87982C15.3717 10.4423 15.6873 11.2048 15.6873 11.9998C15.6873 12.7948 15.3717 13.5573 14.8099 14.1198L10.2199 18.7098C10.0336 18.8946 9.78224 18.9987 9.5199 18.9998C9.38829 19.0006 9.25783 18.9754 9.13599 18.9256C9.01415 18.8758 8.90334 18.8025 8.8099 18.7098C8.71617 18.6169 8.64177 18.5063 8.591 18.3844C8.54024 18.2625 8.5141 18.1318 8.5141 17.9998C8.5141 17.8678 8.54024 17.7371 8.591 17.6152C8.64177 17.4934 8.71617 17.3828 8.8099 17.2898L13.3999 12.7098Z" fill="white" fill-opacity="0.35"/>
</svg>
