<svg width="13" height="12" viewBox="0 0 13 12" fill="none" xmlns="http://www.w3.org/2000/svg">
<path d="M12.3471 4.78656C12.1446 4.59107 11.8163 4.59107 11.6138 4.78656L5.96465 10.2646C4.95192 11.2426 3.3099 11.2427 2.29703 10.2649C1.28416 9.28707 1.28407 7.70158 2.29676 6.7236L7.76798 1.41931C8.38046 0.837341 9.36561 0.84497 9.96834 1.43635C10.5641 2.02095 10.5643 2.95889 9.96861 3.54363L4.4974 8.84792C4.29238 9.03754 3.96903 9.03754 3.76404 8.84792C3.56157 8.65236 3.56157 8.33536 3.76404 8.13982L8.63517 3.41494C8.83416 3.216 8.82847 2.89898 8.62243 2.70685C8.42145 2.5194 8.1028 2.5194 7.90181 2.70685L3.03068 7.43172C2.42299 8.01837 2.42292 8.96961 3.03049 9.55637L3.03068 9.55656C3.64652 10.124 4.61545 10.124 5.23129 9.55656L10.702 4.25177C11.7017 3.26156 11.6808 1.67631 10.6552 0.711003C9.64802 -0.237095 8.04168 -0.236977 7.03462 0.711214L1.56341 6.01548C0.145532 7.38452 0.145532 9.60419 1.56341 10.9732C2.98128 12.3423 5.28013 12.3423 6.698 10.9732L12.3471 5.49668C12.5502 5.30163 12.5511 4.98457 12.3491 4.78846L12.3471 4.78656Z" fill="black"/>
</svg>
