<svg width="24" height="24" viewBox="0 0 24 24" fill="none" xmlns="http://www.w3.org/2000/svg">
<path d="M18.8571 10.838H7.42857L11.1886 6.99674C11.2957 6.88819 11.3807 6.75906 11.4387 6.61678C11.4968 6.4745 11.5266 6.32189 11.5266 6.16776C11.5266 6.01363 11.4968 5.86102 11.4387 5.71874C11.3807 5.57646 11.2957 5.44733 11.1886 5.33879C10.9744 5.12133 10.6848 4.99927 10.3829 4.99927C10.0809 4.99927 9.79127 5.12133 9.57714 5.33879L4.67429 10.3593C4.24504 10.7952 4.00255 11.3873 4 12.0056C4.00556 12.6199 4.24782 13.2072 4.67429 13.6402L9.57714 18.6607C9.6837 18.7688 9.81006 18.8544 9.94899 18.9126C10.0879 18.9709 10.2367 19.0005 10.3869 19C10.5371 18.9995 10.6857 18.9687 10.8242 18.9095C10.9627 18.8503 11.0885 18.7638 11.1943 18.6549C11.3001 18.546 11.3839 18.417 11.4409 18.275C11.4978 18.1331 11.5269 17.9811 11.5264 17.8276C11.5258 17.6742 11.4957 17.5224 11.4378 17.3809C11.3798 17.2394 11.2951 17.1109 11.1886 17.0028L7.42857 13.1732H18.8571C19.1602 13.1732 19.4509 13.0502 19.6653 12.8312C19.8796 12.6122 20 12.3153 20 12.0056C20 11.6959 19.8796 11.399 19.6653 11.18C19.4509 10.961 19.1602 10.838 18.8571 10.838Z" fill="black"/>
</svg>