<svg width="24" height="24" viewBox="0 0 24 24" fill="none" xmlns="http://www.w3.org/2000/svg">
<path d="M6.13255 6.69002C6.13255 5.44589 6.64183 4.25272 7.54835 3.37299C8.45486 2.49325 9.68436 1.99902 10.9664 1.99902C12.2484 1.99902 13.4779 2.49325 14.3844 3.37299C15.2909 4.25272 15.8002 5.44589 15.8002 6.69002C15.8002 7.93415 15.2909 9.12733 14.3844 10.0071C13.4779 10.8868 12.2484 11.381 10.9664 11.381C9.68436 11.381 8.45486 10.8868 7.54835 10.0071C6.64183 9.12733 6.13255 7.93415 6.13255 6.69002ZM3 18.429C3 16.9184 3.61838 15.4696 4.71911 14.4013C5.81984 13.3331 7.31275 12.733 8.86942 12.733H13.0633C14.1741 12.733 15.2128 13.033 16.098 13.553C16.3659 13.709 16.3906 14.067 16.1701 14.281L12.3307 18.007C11.6977 18.6218 11.3231 19.443 11.2796 20.311L11.259 20.685C11.2524 20.8131 11.1954 20.9338 11.0997 21.0222C11.004 21.1106 10.8769 21.1599 10.7448 21.16H5.81415C5.06779 21.16 4.352 20.8723 3.82424 20.3601C3.29649 19.848 3 19.1533 3 18.429ZM17.08 16.227C17.0321 16.1805 16.9753 16.1435 16.9127 16.1183C16.8501 16.0931 16.783 16.0801 16.7152 16.0801C16.6475 16.0801 16.5804 16.0931 16.5178 16.1183C16.4552 16.1435 16.3983 16.1805 16.3504 16.227L13.424 19.067C13.0618 19.4182 12.8472 19.8877 12.8222 20.384L12.7676 21.479C12.7642 21.5467 12.7751 21.6143 12.7995 21.6777C12.8239 21.7412 12.8613 21.7992 12.9095 21.8482C12.9576 21.8972 13.0156 21.9362 13.0798 21.9628C13.1439 21.9894 13.213 22.0031 13.2828 22.003H14.2463C14.7794 22.0028 15.2917 21.8021 15.6755 21.443L18.7504 18.569C18.7997 18.5229 18.8392 18.4678 18.8663 18.4067C18.8935 18.3457 18.9078 18.28 18.9085 18.2135C18.9091 18.147 18.8961 18.0811 18.8702 18.0195C18.8443 17.958 18.806 17.902 18.7576 17.855L17.08 16.227ZM19.9158 16.858C20.091 17.028 20.3733 17.028 20.5474 16.858C20.8372 16.5767 21 16.1953 21 15.7975C21 15.3998 20.8372 15.0183 20.5474 14.737L20.3104 14.507C20.1669 14.3676 19.9965 14.2571 19.8089 14.1816C19.6213 14.1062 19.4202 14.0673 19.2171 14.0673C19.0141 14.0673 18.813 14.1062 18.6254 14.1816C18.4378 14.2571 18.2674 14.3676 18.1238 14.507C18.0405 14.5883 17.9938 14.6984 17.9938 14.813C17.9938 14.9277 18.0405 15.0377 18.1238 15.119L19.9158 16.858Z" fill="#A5AFD4"/>
</svg> 