<svg width="44" height="44" viewBox="0 0 44 44" fill="none" xmlns="http://www.w3.org/2000/svg">
<g clip-path="url(#clip0_408_1120)">
<path d="M10.35 16.4234L15.1314 23.2741C15.2739 23.4745 15.5707 23.9385 16.0159 23.6769C16.4292 23.4325 16.2136 22.9439 16.1075 22.7175L11.5791 12.7955C11.258 12.0581 11.5903 11.136 12.3241 10.779C13.0721 10.3956 14.0488 10.689 14.4281 11.4234L19.2305 21.1287C19.3153 21.3098 19.5533 21.7991 20.0097 21.6229C20.4566 21.4643 20.3356 20.9467 20.2825 20.7485L17.1219 9.30026C16.9065 8.44924 17.4494 7.51472 18.4898 7.24161C19.3184 7.02572 20.3076 7.5297 20.5459 8.35894L23.7052 19.5119C23.7547 19.6743 23.9027 20.1836 24.3697 20.115C24.855 20.0335 24.8146 19.5135 24.8327 19.3305L24.3192 9.67679C24.2682 9.04918 24.7716 8.08234 25.8421 8.02921C26.9438 7.98135 27.4839 8.90331 27.5156 9.58858L28.2226 20.0704C28.2996 21.6068 28.8725 23.1694 29.5991 24.1453C30.1615 24.8978 30.9837 24.7578 31.4991 24.0239C32.2976 22.8857 33.3396 21.5032 34.44 20.4577C35.591 19.3598 37.497 19.5248 38.4638 20.9006L37.0691 22.4352C35.6602 23.9962 34.6016 25.857 33.933 27.8574C33.3801 29.5343 32.5923 31.6525 31.6218 33.3903C30.1678 36.0149 27.7691 36.2219 25.4054 36.8101C15.1796 39.3982 14.6962 28.2197 12.895 25.7086L7.88994 17.9799C7.47299 17.3161 7.76824 16.4424 8.43148 16.0478C9.07649 15.6661 9.91423 15.7949 10.35 16.4234Z" fill="#FFD365"/>
<path d="M36.4171 19.7655C36.6055 19.9225 36.7756 20.0923 36.9269 20.2975L35.5322 21.8321C34.1233 23.3931 33.0647 25.2539 32.3961 27.2544C31.8432 28.9312 31.0553 31.0494 30.0848 32.7872C28.6309 35.4118 26.2322 35.6188 23.8685 36.207C21.9324 36.6943 20.3489 36.6896 19.038 36.3429C20.5951 37.2059 22.6406 37.5132 25.3919 36.8142C27.7556 36.226 30.1454 36.0142 31.6082 33.3943C32.5834 31.6477 33.3713 29.5295 33.9195 27.8615C34.5792 25.8563 35.6467 24.0002 37.0555 22.4392L38.4503 20.9047C37.9539 20.1985 37.1942 19.8167 36.4171 19.7655Z" fill="#FFD365"/>
<path d="M32.8701 26.3852C32.3172 28.0621 31.5293 30.1803 30.5588 31.918C29.1048 34.5426 26.7062 34.7497 24.3425 35.3379C20.2585 36.3697 17.7294 35.2044 16.0474 33.278C17.673 36.0127 20.3439 38.1031 25.4006 36.8189C27.7643 36.2307 30.1541 36.0189 31.6169 33.399C32.5921 31.6524 33.38 29.5342 33.9282 27.8662C34.5967 25.8657 33.5298 24.38 32.8701 26.3852Z" fill="#FFD365"/>
<path d="M19.0137 7.74709L22.5603 20.0239C22.6098 20.1862 22.7578 20.6955 23.2248 20.627C23.71 20.5454 23.6697 20.0255 23.6878 19.8425L23.649 19.0855L20.5412 8.36774C20.3236 7.60613 19.4903 7.12851 18.7233 7.2073C18.8534 7.3672 18.9518 7.54419 19.0137 7.74709Z" fill="#FFD365"/>
<path d="M12.797 10.8268L18.1272 21.5836C18.225 21.7829 18.493 22.3221 18.9946 22.1247C19.4233 21.9791 19.3812 21.5262 19.3252 21.2697L14.4886 11.5009C14.1605 10.8617 13.3909 10.5199 12.6721 10.6358C12.7151 10.704 12.7628 10.7633 12.797 10.8268Z" fill="#FFD365"/>
<path d="M25.9834 8.97676L26.6904 19.4586C26.7674 20.995 27.3403 22.5575 28.0669 23.5335C28.4561 24.0579 28.9821 24.134 29.4401 23.8907C28.7941 22.9124 28.3025 21.4951 28.2226 20.0704L27.5156 9.58859C27.4839 8.90332 26.9438 7.98136 25.8421 8.02922C25.775 8.0275 25.7209 8.04401 25.658 8.05582C25.8518 8.35157 25.9685 8.6856 25.9834 8.97676Z" fill="#FFD365"/>
<path d="M14.1997 23.8318C14.3593 24.064 14.7168 24.6055 15.2301 24.301C15.43 24.1809 15.4834 24.0167 15.4921 23.8514L10.3915 16.5363C9.98578 15.9578 9.3021 15.7524 8.66751 15.9017L14.1997 23.8318Z" fill="#FFD365"/>
<path d="M18.9221 36.859C15.7444 35.1672 14.4646 31.3363 13.5709 28.6741C13.1889 27.519 12.8476 26.5216 12.4848 26.0113L7.46684 18.2644C7.2089 17.8552 7.12737 17.3699 7.24702 16.8898C7.36782 16.365 7.71043 15.913 8.16963 15.625C9.06041 15.0797 10.1688 15.2959 10.7559 16.1296L15.5373 22.9803C15.5892 23.0532 15.7146 23.2219 15.7675 23.2501C15.7552 23.2095 15.7221 23.1013 15.6461 22.9249L11.1177 13.0029C10.687 12.0032 11.1291 10.8111 12.0899 10.3257C12.5703 10.083 13.1532 10.0308 13.6898 10.2146C14.2135 10.3801 14.6249 10.735 14.8546 11.1972L19.6658 20.9073C19.7589 21.1154 19.816 21.1572 19.8337 21.1666C19.8295 21.153 19.8495 21.073 19.8005 20.8883L16.631 9.43535C16.3478 8.26497 17.0981 7.08972 18.3502 6.7594C19.4624 6.47917 20.7064 7.16415 21.0148 8.22334L24.1741 19.3763C24.2319 19.5657 24.2755 19.6116 24.2973 19.6345C24.3119 19.5856 24.3159 19.4292 24.3218 19.3756L23.8042 9.70837C23.7585 9.21958 23.961 8.64767 24.3295 8.2321C24.7028 7.80771 25.2144 7.57028 25.7967 7.54045C27.109 7.48008 27.9456 8.52594 27.9993 9.57414L28.6976 20.0513C28.7656 21.413 29.2732 22.9067 29.9733 23.8686C30.0728 24.0009 30.2476 24.1619 30.4535 24.1582C30.6594 24.1546 30.8822 24.0126 31.0679 23.749C31.7919 22.7296 32.8861 21.2276 34.0688 20.1127C34.7201 19.4851 35.6181 19.1815 36.5329 19.2721C37.4565 19.3673 38.3027 19.8631 38.8556 20.6333C38.9893 20.8291 38.9783 21.0838 38.8173 21.2586L37.4225 22.7932C36.0689 24.293 35.0484 26.0608 34.394 28.0348C33.6515 30.3018 32.8605 32.1918 32.0445 33.6606C30.6704 36.1351 28.5149 36.6302 26.4223 37.1135C26.1253 37.182 25.8148 37.2546 25.5131 37.3318C22.6948 38.0292 20.5551 37.7284 18.9221 36.859ZM9.62963 16.4363C9.34717 16.2859 9.00247 16.295 8.6979 16.4841L8.6932 16.4929C8.46154 16.6301 8.28995 16.8673 8.22072 17.125C8.18554 17.2762 8.17512 17.5086 8.30822 17.7267L13.3044 25.4507C13.7496 26.0616 14.1027 27.1219 14.5095 28.3581C15.906 32.5229 17.809 38.2263 25.27 36.3414C25.5852 36.26 25.8911 36.1963 26.2016 36.1237C28.2448 35.6481 30.0086 35.2503 31.1759 33.1642C31.959 31.7571 32.7218 29.9201 33.4537 27.7155C34.1475 25.6038 35.2426 23.7171 36.6885 22.1078L37.7888 20.8923C37.4267 20.5296 36.9583 20.3029 36.4407 20.2539C35.8159 20.1932 35.2066 20.4013 34.7664 20.8239C33.643 21.8912 32.5864 23.3226 31.8901 24.3113C31.5234 24.8298 31.0101 25.1343 30.4819 25.1476C29.9895 25.1574 29.5217 24.9083 29.1843 24.4568C28.3541 23.3351 27.7929 21.6655 27.7164 20.1067L27.0094 9.62486C26.9903 9.32017 26.7433 8.48623 25.8562 8.53511C25.5427 8.54946 25.2846 8.67259 25.0912 8.88684C24.8702 9.13171 24.7951 9.44294 24.8082 9.63117L25.3258 19.2984C25.3054 20.2732 24.8379 20.5341 24.4515 20.6003C24.1192 20.6499 23.5209 20.6033 23.2273 19.6653L20.0639 8.49874C19.8988 7.95768 19.1926 7.58172 18.6162 7.72803C17.8099 7.94449 17.4657 8.63357 17.6038 9.18288L20.765 20.6088C21.0027 21.4604 20.6148 21.9336 20.1679 22.0922C19.9691 22.1676 19.2439 22.3593 18.7691 21.3362L13.962 11.6396C13.8513 11.4221 13.65 11.2469 13.3793 11.1595C13.0998 11.0673 12.7952 11.0864 12.5458 11.2142C12.0519 11.461 11.8165 12.0947 12.0274 12.5922L16.5517 22.5007C16.9618 23.4328 16.6192 23.8848 16.2605 24.0903C15.8789 24.3177 15.2996 24.4057 14.7219 23.5544L9.93629 16.6902C9.85386 16.5897 9.75321 16.5021 9.62963 16.4363Z" fill="black"/>
<path d="M8.42223 29.1732C5.84476 27.8009 4.23277 25.0621 4.30357 22.1203C4.31044 21.852 4.53969 21.6342 4.82146 21.637C5.09852 21.6485 5.31634 21.8778 5.30947 22.146C5.25138 24.7661 6.72316 27.215 9.07342 28.3756C9.31587 28.516 9.4249 28.8007 9.29332 29.0478C9.17056 29.2997 8.86828 29.3993 8.62113 29.2677C8.55464 29.2437 8.49285 29.2108 8.42223 29.1732Z" fill="black"/>
<path d="M9.54396 26.9605C9.52631 26.9511 9.51748 26.9464 9.49983 26.937C7.89434 25.867 6.91127 24.0748 6.88457 22.146C6.88261 21.873 7.09891 21.637 7.38067 21.6397C7.65361 21.6377 7.88966 21.854 7.88692 22.1358C7.90867 23.7334 8.72505 25.2217 10.0533 26.1101C10.2776 26.2635 10.3501 26.574 10.1921 26.8071C10.0481 27.0137 9.76463 27.078 9.54396 26.9605Z" fill="black"/>
<path d="M32.9351 18.7953C32.7145 18.6778 32.6096 18.4067 32.7053 18.1631C33.68 15.7365 33.1479 12.9269 31.3583 11.0111C31.1711 10.8095 31.1791 10.4965 31.3807 10.3093C31.5824 10.1221 31.8953 10.1301 32.0825 10.3318C34.1335 12.5226 34.74 15.7457 33.6261 18.5401C33.5257 18.7925 33.2317 18.9192 32.9793 18.8188C32.9704 18.8141 32.9528 18.8047 32.9351 18.7953Z" fill="black"/>
<path d="M30.5548 18.0946C30.3429 17.9818 30.2333 17.7195 30.3243 17.4847C30.855 15.9773 30.6161 14.2981 29.674 13.0034C29.5097 12.78 29.5624 12.4682 29.7858 12.304C30.0093 12.1397 30.3211 12.1924 30.4853 12.4158C31.613 13.9791 31.9103 15.9953 31.2687 17.8176C31.1771 18.0747 30.8872 18.2149 30.6301 18.1233C30.6036 18.1092 30.5813 18.1087 30.5548 18.0946Z" fill="black"/>
</g>
<defs>
<clipPath id="clip0_408_1120">
<rect width="32" height="32" fill="white" transform="translate(15.0381) rotate(28.0308)"/>
</clipPath>
</defs>
</svg>
