<svg width="281" height="281" viewBox="0 0 281 281" fill="none" xmlns="http://www.w3.org/2000/svg">
<g clip-path="url(#clip0_135_911)">
<path d="M280.93 140.47C280.93 218.04 218.04 280.93 140.48 280.93C62.92 280.93 0 218.04 0 140.47C0 62.9 62.89 0 140.48 0C218.07 0 280.93 62.89 280.93 140.47Z" fill="url(#paint0_linear_135_911)"/>
<path d="M277.94 138.09C277.94 213.05 217.17 273.82 142.22 273.82C67.2705 273.82 6.48047 213.05 6.48047 138.09C6.48047 63.1303 67.2505 2.36035 142.22 2.36035C217.19 2.36035 277.94 63.1303 277.94 138.09Z" fill="url(#paint1_linear_135_911)"/>
<path d="M274.961 135.72C274.961 208.07 216.321 266.72 143.971 266.72C71.6209 266.72 12.9609 208.06 12.9609 135.72C12.9609 63.3797 71.6109 4.71973 143.971 4.71973C216.331 4.71973 274.961 63.3697 274.961 135.72Z" fill="url(#paint2_linear_135_911)"/>
<path d="M271.969 133.34C271.969 203.07 215.449 259.61 145.709 259.61C75.9695 259.61 19.4395 203.08 19.4395 133.34C19.4395 63.6001 75.9695 7.08008 145.709 7.08008C215.449 7.08008 271.969 63.6101 271.969 133.35V133.34Z" fill="url(#paint3_linear_135_911)"/>
<path d="M268.98 130.97C268.98 198.09 214.58 252.5 147.46 252.5C80.3399 252.5 25.9199 198.09 25.9199 130.97C25.9199 63.8497 80.3299 9.42969 147.46 9.42969C214.59 9.42969 268.98 63.8497 268.98 130.97Z" fill="url(#paint4_linear_135_911)"/>
<path d="M266 128.59C266 193.1 213.72 245.39 149.21 245.39C84.7004 245.39 32.4004 193.1 32.4004 128.59C32.4004 64.08 84.6904 11.79 149.21 11.79C213.73 11.79 266 64.09 266 128.59Z" fill="url(#paint5_linear_135_911)"/>
<path d="M263.011 126.22C263.011 188.12 212.851 238.29 150.951 238.29C89.0508 238.29 38.8809 188.12 38.8809 126.22C38.8809 64.3204 89.0508 14.1504 150.951 14.1504C212.851 14.1504 263.011 64.3304 263.011 126.22Z" fill="url(#paint6_linear_135_911)"/>
<path d="M260.029 123.85C260.029 183.13 211.989 231.19 152.699 231.19C93.4094 231.19 45.3594 183.14 45.3594 123.85C45.3594 64.5598 93.4094 16.5098 152.699 16.5098C211.989 16.5098 260.029 64.5698 260.029 123.85Z" fill="url(#paint7_linear_135_911)"/>
<path d="M257.04 121.47C257.04 178.14 211.12 224.08 154.45 224.08C97.7798 224.08 51.8398 178.14 51.8398 121.47C51.8398 64.8001 97.7698 18.8701 154.45 18.8701C211.13 18.8701 257.04 64.8101 257.04 121.47Z" fill="url(#paint8_linear_135_911)"/>
<path d="M254.05 119.1C254.05 173.16 210.25 216.97 156.19 216.97C102.13 216.97 58.3203 173.15 58.3203 119.1C58.3203 65.0505 102.13 21.2305 156.19 21.2305C210.25 21.2305 254.05 65.0505 254.05 119.1Z" fill="url(#paint9_linear_135_911)"/>
<path d="M251.071 116.72C251.071 168.16 209.391 209.86 157.941 209.86C106.491 209.86 64.8008 168.16 64.8008 116.72C64.8008 65.2801 106.491 23.5801 157.941 23.5801C209.391 23.5801 251.071 65.2801 251.071 116.72Z" fill="url(#paint10_linear_135_911)"/>
<path d="M248.08 114.35C248.08 163.18 208.52 202.76 159.68 202.76C110.84 202.76 71.2695 163.18 71.2695 114.35C71.2695 65.5204 110.85 25.9404 159.68 25.9404C208.51 25.9404 248.08 65.5204 248.08 114.35Z" fill="url(#paint11_linear_135_911)"/>
<path d="M245.1 111.97C245.1 158.19 207.66 195.65 161.44 195.65C115.22 195.65 77.7695 158.19 77.7695 111.97C77.7695 65.7498 115.21 28.2998 161.43 28.2998C207.65 28.2998 245.09 65.7698 245.09 111.97H245.1Z" fill="url(#paint12_linear_135_911)"/>
<path d="M242.11 109.6C242.11 153.21 206.79 188.54 163.18 188.54C119.57 188.54 84.2402 153.2 84.2402 109.6C84.2402 66.0002 119.57 30.6602 163.18 30.6602C206.79 30.6602 242.11 66.0102 242.11 109.6Z" fill="url(#paint13_linear_135_911)"/>
<path d="M239.121 107.22C239.121 148.21 205.921 181.43 164.921 181.43C123.921 181.43 90.7207 148.21 90.7207 107.22C90.7207 66.2298 123.931 33.0098 164.921 33.0098C205.911 33.0098 239.121 66.2398 239.121 107.22Z" fill="url(#paint14_linear_135_911)"/>
<path d="M236.139 104.85C236.139 143.23 205.059 174.33 166.669 174.33C128.279 174.33 97.1992 143.23 97.1992 104.85C97.1992 66.4699 128.289 35.3799 166.669 35.3799C205.049 35.3799 236.139 66.4899 236.139 104.85Z" fill="url(#paint15_linear_135_911)"/>
<path d="M233.15 102.48C233.15 138.25 204.19 167.23 168.42 167.23C132.65 167.23 103.68 138.25 103.68 102.48C103.68 66.7102 132.65 37.7402 168.42 37.7402C204.19 37.7402 233.15 66.7302 233.15 102.48Z" fill="url(#paint16_linear_135_911)"/>
<path d="M230.16 100.1C230.16 133.25 203.32 160.12 170.16 160.12C137 160.12 110.16 133.26 110.16 100.1C110.16 66.9398 137.01 40.0898 170.16 40.0898C203.31 40.0898 230.16 66.9598 230.16 100.1Z" fill="url(#paint17_linear_135_911)"/>
<path d="M227.181 97.7302C227.181 128.27 202.461 153.01 171.911 153.01C141.361 153.01 116.641 128.27 116.641 97.7302C116.641 67.1902 141.371 42.4502 171.911 42.4502C202.451 42.4502 227.181 67.2002 227.181 97.7302Z" fill="url(#paint18_linear_135_911)"/>
<path d="M224.189 95.3496C224.189 123.28 201.589 145.9 173.649 145.9C145.709 145.9 123.109 123.28 123.109 95.3496C123.109 67.4196 145.719 44.8096 173.649 44.8096C201.579 44.8096 224.189 67.4496 224.189 95.3496Z" fill="url(#paint19_linear_135_911)"/>
<path d="M221.21 92.9799C221.21 118.3 200.73 138.8 175.4 138.8C150.07 138.8 129.6 118.3 129.6 92.9799C129.6 67.6599 150.09 47.1699 175.4 47.1699C200.71 47.1699 221.21 67.6899 221.21 92.9799Z" fill="url(#paint20_linear_135_911)"/>
<path d="M218.22 90.5995C218.22 113.3 199.86 131.69 177.15 131.69C154.44 131.69 136.08 113.31 136.08 90.5995C136.08 67.8895 154.45 49.5195 177.15 49.5195C199.85 49.5195 218.22 67.9195 218.22 90.5995Z" fill="url(#paint21_linear_135_911)"/>
</g>
<defs>
<linearGradient id="paint0_linear_135_911" x1="108.86" y1="3.57" x2="172.07" y2="277.36" gradientUnits="userSpaceOnUse">
<stop stop-color="#FFF48D"/>
<stop offset="1" stop-color="#D67E3C"/>
</linearGradient>
<linearGradient id="paint1_linear_135_911" x1="111.67" y1="5.81035" x2="172.75" y2="270.37" gradientUnits="userSpaceOnUse">
<stop stop-color="#FFF48D"/>
<stop offset="1" stop-color="#D67E3C"/>
</linearGradient>
<linearGradient id="paint2_linear_135_911" x1="114.481" y1="8.04973" x2="173.431" y2="263.39" gradientUnits="userSpaceOnUse">
<stop stop-color="#FFF48D"/>
<stop offset="1" stop-color="#D67E3C"/>
</linearGradient>
<linearGradient id="paint3_linear_135_911" x1="117.299" y1="10.2901" x2="174.119" y2="256.4" gradientUnits="userSpaceOnUse">
<stop stop-color="#FFF48D"/>
<stop offset="1" stop-color="#D67E3C"/>
</linearGradient>
<linearGradient id="paint4_linear_135_911" x1="120.11" y1="12.5197" x2="174.8" y2="249.42" gradientUnits="userSpaceOnUse">
<stop stop-color="#FFF48D"/>
<stop offset="1" stop-color="#D67E3C"/>
</linearGradient>
<linearGradient id="paint5_linear_135_911" x1="122.92" y1="14.76" x2="175.48" y2="242.43" gradientUnits="userSpaceOnUse">
<stop stop-color="#FFF48D"/>
<stop offset="1" stop-color="#D67E3C"/>
</linearGradient>
<linearGradient id="paint6_linear_135_911" x1="125.731" y1="17.0004" x2="176.161" y2="235.44" gradientUnits="userSpaceOnUse">
<stop stop-color="#FFF48D"/>
<stop offset="1" stop-color="#D67E3C"/>
</linearGradient>
<linearGradient id="paint7_linear_135_911" x1="128.539" y1="19.2398" x2="176.839" y2="228.46" gradientUnits="userSpaceOnUse">
<stop stop-color="#FFF48D"/>
<stop offset="1" stop-color="#D67E3C"/>
</linearGradient>
<linearGradient id="paint8_linear_135_911" x1="131.35" y1="21.4801" x2="177.53" y2="221.47" gradientUnits="userSpaceOnUse">
<stop stop-color="#FFF48D"/>
<stop offset="1" stop-color="#D67E3C"/>
</linearGradient>
<linearGradient id="paint9_linear_135_911" x1="134.17" y1="23.7105" x2="178.21" y2="214.48" gradientUnits="userSpaceOnUse">
<stop stop-color="#FFF48D"/>
<stop offset="1" stop-color="#D67E3C"/>
</linearGradient>
<linearGradient id="paint10_linear_135_911" x1="136.981" y1="25.9501" x2="178.891" y2="207.5" gradientUnits="userSpaceOnUse">
<stop stop-color="#FFF48D"/>
<stop offset="1" stop-color="#D67E3C"/>
</linearGradient>
<linearGradient id="paint11_linear_135_911" x1="139.79" y1="28.1904" x2="179.57" y2="200.51" gradientUnits="userSpaceOnUse">
<stop stop-color="#FFF48D"/>
<stop offset="1" stop-color="#D67E3C"/>
</linearGradient>
<linearGradient id="paint12_linear_135_911" x1="142.6" y1="30.4298" x2="180.25" y2="193.52" gradientUnits="userSpaceOnUse">
<stop stop-color="#FFF48D"/>
<stop offset="1" stop-color="#D67E3C"/>
</linearGradient>
<linearGradient id="paint13_linear_135_911" x1="145.41" y1="32.6702" x2="180.94" y2="186.54" gradientUnits="userSpaceOnUse">
<stop stop-color="#FFF48D"/>
<stop offset="1" stop-color="#D67E3C"/>
</linearGradient>
<linearGradient id="paint14_linear_135_911" x1="148.221" y1="34.8998" x2="181.621" y2="179.55" gradientUnits="userSpaceOnUse">
<stop stop-color="#FFF48D"/>
<stop offset="1" stop-color="#D67E3C"/>
</linearGradient>
<linearGradient id="paint15_linear_135_911" x1="151.039" y1="37.1399" x2="182.299" y2="172.57" gradientUnits="userSpaceOnUse">
<stop stop-color="#FFF48D"/>
<stop offset="1" stop-color="#D67E3C"/>
</linearGradient>
<linearGradient id="paint16_linear_135_911" x1="153.85" y1="39.3802" x2="182.98" y2="165.58" gradientUnits="userSpaceOnUse">
<stop stop-color="#FFF48D"/>
<stop offset="1" stop-color="#D67E3C"/>
</linearGradient>
<linearGradient id="paint17_linear_135_911" x1="156.66" y1="41.6198" x2="183.67" y2="158.59" gradientUnits="userSpaceOnUse">
<stop stop-color="#FFF48D"/>
<stop offset="1" stop-color="#D67E3C"/>
</linearGradient>
<linearGradient id="paint18_linear_135_911" x1="159.471" y1="43.8502" x2="184.351" y2="151.61" gradientUnits="userSpaceOnUse">
<stop stop-color="#FFF48D"/>
<stop offset="1" stop-color="#D67E3C"/>
</linearGradient>
<linearGradient id="paint19_linear_135_911" x1="162.279" y1="46.0896" x2="185.029" y2="144.62" gradientUnits="userSpaceOnUse">
<stop stop-color="#FFF48D"/>
<stop offset="1" stop-color="#D67E3C"/>
</linearGradient>
<linearGradient id="paint20_linear_135_911" x1="165.09" y1="48.3299" x2="185.71" y2="137.63" gradientUnits="userSpaceOnUse">
<stop stop-color="#FFF48D"/>
<stop offset="1" stop-color="#D67E3C"/>
</linearGradient>
<linearGradient id="paint21_linear_135_911" x1="167.91" y1="50.5695" x2="186.39" y2="130.65" gradientUnits="userSpaceOnUse">
<stop stop-color="#FFF48D"/>
<stop offset="1" stop-color="#D67E3C"/>
</linearGradient>
<clipPath id="clip0_135_911">
<rect width="280.93" height="280.93" fill="white"/>
</clipPath>
</defs>
</svg>
