<svg width="14" height="14" viewBox="0 0 14 14" fill="none" xmlns="http://www.w3.org/2000/svg">
<g clip-path="url(#clip0_514_751)">
<path d="M13.3834 5.43463C13.3423 5.30195 13.2648 5.18481 13.1603 5.09781C13.0559 5.0108 12.9293 4.95778 12.7962 4.94536L9.09212 4.59445L7.62746 1.01789C7.51943 0.755791 7.27348 0.586182 7.00022 0.586182C6.72695 0.586182 6.48098 0.755818 6.373 1.01855L4.90831 4.59447L1.20367 4.94536C1.07072 4.95806 0.944275 5.01119 0.840002 5.09817C0.73573 5.18514 0.658219 5.30213 0.617078 5.43463C0.532582 5.70575 0.610611 6.0031 0.816526 6.19055L3.61637 8.75222L2.79075 12.5463C2.73034 12.8253 2.83412 13.1137 3.056 13.281C3.17524 13.3709 3.31478 13.4167 3.45547 13.4167C3.57679 13.4167 3.6971 13.3825 3.80514 13.3151L7.00022 11.3229L10.1941 13.3151C10.4279 13.4618 10.7225 13.4484 10.9439 13.281C11.0522 13.1992 11.1352 13.0859 11.1823 12.9553C11.2295 12.8246 11.2388 12.6824 11.2091 12.5463L10.3835 8.75222L13.1833 6.19107C13.284 6.0993 13.3567 5.97868 13.3923 5.8442C13.4278 5.70971 13.4247 5.56729 13.3834 5.43463Z" fill="#FFBB0F"/>
</g>
<defs>
<clipPath id="clip0_514_751">
<rect width="14" height="14" fill="white"/>
</clipPath>
</defs>
</svg> 